<svg width="236" height="30" viewBox="0 0 236 30" fill="none" xmlns="http://www.w3.org/2000/svg">
<path fill-rule="evenodd" clip-rule="evenodd" d="M155.999 14.9995C155.999 6.71526 162.715 -0.000488281 170.999 -0.000488281C179.283 -0.000488281 185.999 6.71526 185.999 14.9995C185.999 23.2838 179.283 29.9995 170.999 29.9995C162.715 29.9995 155.999 23.2838 155.999 14.9995ZM178.665 11.2953C178.481 10.5884 177.939 10.0318 177.25 9.84282C176.002 9.49951 170.999 9.49951 170.999 9.49951C170.999 9.49951 165.996 9.49951 164.748 9.84282C164.06 10.0318 163.517 10.5884 163.333 11.2953C162.999 12.5764 162.999 15.2495 162.999 15.2495C162.999 15.2495 162.999 17.9225 163.333 19.2038C163.517 19.9106 164.06 20.4673 164.748 20.6563C165.996 20.9995 170.999 20.9995 170.999 20.9995C170.999 20.9995 176.002 20.9995 177.25 20.6563C177.939 20.4673 178.481 19.9106 178.665 19.2038C178.999 17.9225 178.999 15.2495 178.999 15.2495C178.999 15.2495 178.999 12.5764 178.665 11.2953Z" fill="white"/>
<path fill-rule="evenodd" clip-rule="evenodd" d="M220.999 29.9995C212.715 29.9995 205.999 23.2838 205.999 14.9995C205.999 6.71526 212.715 -0.000488281 220.999 -0.000488281C229.283 -0.000488281 235.999 6.71526 235.999 14.9995C235.999 23.2838 229.283 29.9995 220.999 29.9995ZM221.494 23.3448C226.411 23.3428 230.411 19.3422 230.413 14.4254C230.414 12.0422 229.487 9.80126 227.803 8.11539C226.119 6.42945 223.879 5.50054 221.493 5.49951C216.577 5.49951 212.576 9.50057 212.574 14.4184C212.573 15.9904 212.984 17.5248 213.764 18.8775L212.499 23.4995L217.227 22.2592C218.53 22.9698 219.997 23.3443 221.49 23.3448H221.494Z" fill="white"/>
<path fill-rule="evenodd" clip-rule="evenodd" d="M217.632 20.7115L214.604 21.5055L215.412 18.5544L215.222 18.2518C214.421 16.9786 213.998 15.507 213.999 13.9959C214.001 9.5867 217.59 5.99951 222.002 5.99951C224.139 6.00025 226.148 6.83315 227.658 8.34477C229.169 9.85638 230 11.8655 229.999 14.0024C229.997 18.412 226.409 21.9995 221.999 21.9995H221.996C220.56 21.9989 219.152 21.6134 217.924 20.8848L217.632 20.7115ZM226.848 16.2909C226.788 16.1906 226.628 16.1305 226.387 16.0101C226.147 15.8898 224.964 15.3083 224.744 15.228C224.524 15.1477 224.363 15.1077 224.203 15.3482C224.043 15.5889 223.582 16.1305 223.441 16.2909C223.301 16.4514 223.161 16.4714 222.92 16.3511C222.68 16.2308 221.905 15.9769 220.986 15.1578C220.271 14.5203 219.789 13.7331 219.648 13.4924C219.508 13.2518 219.633 13.1216 219.754 13.0018C219.862 12.894 219.994 12.7209 220.115 12.5806C220.235 12.4402 220.275 12.3399 220.355 12.1796C220.435 12.0191 220.395 11.8787 220.335 11.7584C220.275 11.638 219.794 10.4547 219.594 9.97329C219.398 9.50452 219.2 9.56803 219.052 9.56061C218.912 9.5536 218.752 9.55212 218.592 9.55212C218.431 9.55212 218.171 9.61225 217.95 9.85294C217.73 10.0936 217.108 10.6753 217.108 11.8585C217.108 13.0419 217.97 14.185 218.091 14.3455C218.211 14.506 219.786 16.9342 222.199 17.9756C222.773 18.2233 223.221 18.3712 223.57 18.482C224.146 18.665 224.67 18.6392 225.085 18.5772C225.547 18.5083 226.508 17.9957 226.708 17.4342C226.908 16.8725 226.908 16.3912 226.848 16.2909Z" fill="white"/>
<path d="M80.0005 14.9995C80.0005 6.71539 73.2845 -0.000488281 65.0005 -0.000488281C56.7163 -0.000488281 50.0005 6.71539 50.0005 14.9995C50.0005 23.2836 56.7163 29.9995 65.0005 29.9995C73.2845 29.9995 80.0005 23.2836 80.0005 14.9995ZM60.9723 14.9995V12.1291H62.7313V10.3931C62.7313 8.05177 63.4309 6.36495 65.9945 6.36495H69.0436V9.22858H66.8973C65.8213 9.22858 65.5772 9.94314 65.5772 10.6918V12.129H68.8854L68.4341 14.9995H65.5773V23.6572H62.7313V14.9995H60.9723Z" fill="white"/>
<path fill-rule="evenodd" clip-rule="evenodd" d="M0.000610352 14.9995C0.000610352 6.71526 6.71636 -0.000488281 15.0006 -0.000488281C23.2849 -0.000488281 30.0006 6.71526 30.0006 14.9995C30.0006 23.2838 23.2849 29.9995 15.0006 29.9995C6.71636 29.9995 0.000610352 23.2838 0.000610352 14.9995ZM14.5514 12.1917L14.5829 12.7108L14.0582 12.6472C12.1487 12.4036 10.4804 11.5773 9.06392 10.1897L8.37149 9.5012L8.19311 10.0096C7.81536 11.143 8.05667 12.34 8.84361 13.145C9.2633 13.5899 9.16886 13.6534 8.44492 13.3886C8.19311 13.3039 7.97274 13.2404 7.9518 13.2721C7.87836 13.3463 8.13017 14.3102 8.32948 14.6915C8.6023 15.2211 9.15836 15.7402 9.76692 16.0474L10.281 16.291L9.67249 16.3016C9.08492 16.3016 9.06392 16.3122 9.12692 16.5346C9.33674 17.2231 10.1656 17.954 11.0889 18.2718L11.7395 18.4943L11.1729 18.8332C10.3335 19.3204 9.34724 19.5959 8.36099 19.6171C7.8888 19.6276 7.50061 19.67 7.50061 19.7018C7.50061 19.8077 8.78067 20.4009 9.52561 20.6339C11.7604 21.3224 14.415 21.0259 16.4085 19.8501C17.8249 19.0133 19.2414 17.3503 19.9024 15.7402C20.2591 14.8822 20.6159 13.3145 20.6159 12.5624C20.6159 12.0752 20.6473 12.0116 21.2349 11.429C21.5811 11.0901 21.9064 10.7193 21.9694 10.6134C22.0742 10.4121 22.0638 10.4121 21.5287 10.5922C20.6369 10.91 20.5109 10.8676 20.9516 10.3909C21.2769 10.052 21.665 9.43764 21.665 9.25757C21.665 9.22576 21.5077 9.27876 21.3293 9.37407C21.1405 9.48001 20.7208 9.63889 20.406 9.73426L19.8394 9.91432L19.3253 9.56476C19.042 9.37407 18.6433 9.16226 18.4335 9.0987C17.8984 8.95039 17.08 8.97157 16.5974 9.14107C15.2858 9.6177 14.4569 10.8464 14.5514 12.1917Z" fill="white"/>
<path fill-rule="evenodd" clip-rule="evenodd" d="M169.999 17.3295V12.9995L173.529 15.1646L169.999 17.3295Z" fill="white"/>
<path d="M119 29.9995C127.284 29.9995 134 23.2838 134 14.9995C134 6.71524 127.284 -0.000488281 119 -0.000488281C110.716 -0.000488281 104 6.71524 104 14.9995C104 23.2838 110.716 29.9995 119 29.9995Z" fill="white"/>
<mask id="path-8-inside-1_487_3" fill="white">
<path d="M119.497 18.9995C118.607 18.9991 117.737 18.7641 116.998 18.3243C116.258 17.8845 115.681 17.2597 115.341 16.5287C115.001 15.7978 114.912 14.9936 115.086 14.2178C115.26 13.442 115.689 12.7295 116.318 12.1703C116.948 11.6111 117.75 11.2304 118.622 11.0762C119.495 10.922 120.4 11.0014 121.222 11.3042C122.044 11.607 122.747 12.1197 123.241 12.7775C123.736 13.4352 123.999 14.2085 123.999 14.9995C123.998 16.0603 123.523 17.0771 122.679 17.827C121.834 18.5769 120.69 18.9985 119.497 18.9995ZM119.497 12.0876C118.849 12.0876 118.215 12.2585 117.676 12.5786C117.137 12.8987 116.717 13.3537 116.469 13.8861C116.221 14.4184 116.156 15.0042 116.282 15.5693C116.409 16.1345 116.721 16.6536 117.179 17.061C117.638 17.4684 118.222 17.7459 118.857 17.8583C119.493 17.9707 120.152 17.913 120.751 17.6925C121.35 17.472 121.862 17.0986 122.222 16.6195C122.582 16.1404 122.774 15.5772 122.774 15.001C122.774 14.2283 122.429 13.4873 121.814 12.9409C121.2 12.3946 120.366 12.0876 119.497 12.0876Z"/>
</mask>
<path d="M119.497 18.9995L119.494 24.9995L119.502 24.9995L119.497 18.9995ZM123.999 14.9995L129.999 15.0093V14.9995L123.999 14.9995ZM119.5 12.9995C119.65 12.9996 119.844 13.0364 120.064 13.167L113.931 23.4816C115.63 24.4918 117.564 24.9986 119.494 24.9995L119.5 12.9995ZM120.064 13.167C120.288 13.3001 120.577 13.5588 120.781 13.9969L109.902 19.0606C110.786 20.9605 112.228 22.469 113.931 23.4816L120.064 13.167ZM120.781 13.9969C120.991 14.4481 121.061 14.9944 120.941 15.5303L109.231 12.9053C108.763 14.9928 109.011 17.1474 109.902 19.0606L120.781 13.9969ZM120.941 15.5303C120.823 16.0568 120.555 16.4319 120.303 16.6559L112.333 7.68478C110.822 9.02716 109.697 10.8273 109.231 12.9053L120.941 15.5303ZM120.303 16.6559C120.058 16.8736 119.826 16.9565 119.666 16.9848L117.579 5.16766C115.673 5.50427 113.837 6.34864 112.333 7.68478L120.303 16.6559ZM119.666 16.9848C119.506 17.013 119.334 17.003 119.148 16.9344L123.296 5.67398C121.465 4.99975 119.484 4.83112 117.579 5.16766L119.666 16.9848ZM119.148 16.9344C118.96 16.8652 118.69 16.7083 118.445 16.3823L128.037 9.17258C126.804 7.53112 125.128 6.3488 123.296 5.67398L119.148 16.9344ZM118.445 16.3823C118.192 16.0454 117.999 15.5637 117.999 14.9995L129.999 14.9995C129.999 12.8533 129.279 10.825 128.037 9.17258L118.445 16.3823ZM117.999 14.9897C118.001 14.2189 118.352 13.6453 118.694 13.3415L126.664 22.3125C128.694 20.509 129.995 17.9017 129.999 15.0093L117.999 14.9897ZM118.694 13.3415C119.013 13.0579 119.309 12.9997 119.492 12.9995L119.502 24.9995C122.071 24.9974 124.656 24.0958 126.664 22.3125L118.694 13.3415ZM119.497 6.08764C117.809 6.08764 116.111 6.52982 114.612 7.41992L120.74 17.7373C120.319 17.9872 119.889 18.0876 119.497 18.0876V6.08764ZM114.612 7.41992C113.109 8.31247 111.823 9.65068 111.03 11.3518L121.907 16.4204C121.611 17.0568 121.165 17.485 120.74 17.7373L114.612 7.41992ZM111.03 11.3518C110.232 13.0662 110.007 15.0024 110.427 16.8796L122.138 14.2591C122.305 15.006 122.21 15.7707 121.907 16.4204L111.03 11.3518ZM110.427 16.8796C110.845 18.7473 111.853 20.3544 113.193 21.5455L121.166 12.5765C121.589 12.9527 121.973 13.5216 122.138 14.2591L110.427 16.8796ZM113.193 21.5455C114.526 22.7302 116.144 23.4716 117.813 23.7667L119.902 11.95C120.299 12.0202 120.749 12.2067 121.166 12.5765L113.193 21.5455ZM117.813 23.7667C119.481 24.0617 121.217 23.9148 122.824 23.323L118.678 12.0621C119.088 11.9112 119.505 11.8798 119.902 11.95L117.813 23.7667ZM122.824 23.323C124.433 22.7306 125.918 21.6876 127.018 20.2247L117.426 13.0143C117.805 12.5096 118.267 12.2135 118.678 12.0621L122.824 23.323ZM127.018 20.2247C128.126 18.7509 128.774 16.9326 128.774 15.001H116.774C116.774 14.2218 117.038 13.5299 117.426 13.0143L127.018 20.2247ZM128.774 15.001C128.774 12.3937 127.603 10.0586 125.801 8.45648L117.828 17.4254C117.255 16.9159 116.774 16.0629 116.774 15.001H128.774ZM125.801 8.45648C124.021 6.87478 121.744 6.08764 119.497 6.08764V18.0876C118.988 18.0876 118.378 17.9144 117.828 17.4254L125.801 8.45648Z" fill="#EF345F" mask="url(#path-8-inside-1_487_3)"/>
<mask id="path-10-inside-2_487_3" fill="white">
<path d="M123.171 23.9995H114.828C113.548 23.9981 112.321 23.5173 111.416 22.6625C110.511 21.8077 110.001 20.6487 110 19.4399V11.5591C110.001 10.3502 110.51 9.19116 111.415 8.33633C112.321 7.4815 113.548 7.00073 114.828 6.99951H123.171C124.451 7.00072 125.678 7.48148 126.584 8.33629C127.489 9.1911 127.998 10.3501 128 11.5591V19.4399C127.998 20.6488 127.489 21.8077 126.583 22.6625C125.678 23.5173 124.451 23.9981 123.171 23.9995ZM115.08 8.18449C114.064 8.18571 113.09 8.56742 112.372 9.24589C111.653 9.92437 111.249 10.8442 111.248 11.8036V19.1946C111.249 20.1541 111.653 21.0739 112.372 21.7524C113.09 22.4308 114.064 22.8126 115.08 22.8138H122.908C123.924 22.8128 124.898 22.4311 125.616 21.7526C126.335 21.0741 126.739 20.1542 126.74 19.1946V11.8036C126.739 10.8441 126.335 9.92412 125.616 9.24562C124.898 8.56713 123.924 8.1855 122.908 8.18449H115.08Z"/>
</mask>
<path d="M123.171 23.9995V29.9995L123.177 29.9995L123.171 23.9995ZM114.828 23.9995L114.822 29.9995H114.828V23.9995ZM110 19.4399H104L104 19.4473L110 19.4399ZM110 11.5591L104 11.5527V11.5591H110ZM114.828 6.99951V0.999509L114.823 0.999515L114.828 6.99951ZM123.171 6.99951L123.176 0.999512H123.171V6.99951ZM128 11.5591H134L134 11.5517L128 11.5591ZM128 19.4399L134 19.4484V19.4399H128ZM115.08 8.18449V2.18449L115.073 2.1845L115.08 8.18449ZM111.248 11.8036L105.248 11.7969V11.8036H111.248ZM111.248 19.1946H105.248L105.248 19.2013L111.248 19.1946ZM115.08 22.8138L115.073 28.8138H115.08V22.8138ZM122.908 22.8138V28.8138L122.914 28.8138L122.908 22.8138ZM126.74 19.1946L132.74 19.2013V19.1946H126.74ZM126.74 11.8036H132.74L132.74 11.7969L126.74 11.8036ZM122.908 8.18449L122.914 2.18449H122.908V8.18449ZM123.171 17.9995H114.828V29.9995H123.171V17.9995ZM114.835 17.9995C115.037 17.9997 115.294 18.0723 115.535 18.3001L107.296 27.0248C109.348 28.9622 112.06 29.9965 114.822 29.9995L114.835 17.9995ZM115.535 18.3001C115.788 18.5388 115.999 18.9382 116 19.4325L104 19.4473C104.003 22.3593 105.233 25.0765 107.296 27.0248L115.535 18.3001ZM116 19.4399V11.5591H104V19.4399H116ZM116 11.5655C115.999 12.0601 115.788 12.4598 115.535 12.6987L107.296 3.97398C105.233 5.92256 104.003 8.64032 104 11.5527L116 11.5655ZM115.535 12.6987C115.294 12.9267 115.036 12.9993 114.834 12.9995L114.823 0.999515C112.06 1.00213 109.348 2.03635 107.296 3.97398L115.535 12.6987ZM114.828 12.9995H123.171V0.999512H114.828V12.9995ZM123.165 12.9995C122.963 12.9993 122.706 12.9267 122.465 12.699L130.703 3.97359C128.651 2.03621 125.938 1.00213 123.176 0.999515L123.165 12.9995ZM122.465 12.699C122.212 12.4603 122 12.0609 122 11.5666L134 11.5517C133.996 8.63938 132.766 5.92191 130.703 3.97359L122.465 12.699ZM122 11.5591V19.4399H134V11.5591H122ZM122 19.4314C122.001 18.9374 122.212 18.5383 122.464 18.2998L130.702 27.0252C132.766 25.0772 133.996 22.3603 134 19.4484L122 19.4314ZM122.464 18.2998C122.705 18.0722 122.963 17.9997 123.164 17.9995L123.177 29.9995C125.939 29.9965 128.651 28.9623 130.702 27.0252L122.464 18.2998ZM115.073 2.1845C112.575 2.18748 110.116 3.12278 108.252 4.88397L116.492 13.6078C116.064 14.0121 115.553 14.1839 115.087 14.1845L115.073 2.1845ZM108.252 4.88397C106.375 6.65611 105.251 9.13434 105.248 11.7969L117.248 11.8103C117.247 12.5541 116.931 13.1926 116.492 13.6078L108.252 4.88397ZM105.248 11.8036V19.1946H117.248V11.8036H105.248ZM105.248 19.2013C105.251 21.8639 106.375 24.3421 108.252 26.1143L116.492 17.3904C116.931 17.8056 117.247 18.4442 117.248 19.188L105.248 19.2013ZM108.252 26.1143C110.116 27.8755 112.575 28.8108 115.073 28.8138L115.087 16.8138C115.553 16.8143 116.064 16.9862 116.492 17.3904L108.252 26.1143ZM115.08 28.8138H122.908V16.8138H115.08V28.8138ZM122.914 28.8138C125.412 28.8113 127.871 27.8762 129.736 26.115L121.497 17.3903C121.925 16.986 122.436 16.8142 122.902 16.8138L122.914 28.8138ZM129.736 26.115C131.613 24.3428 132.737 21.8643 132.74 19.2013L120.74 19.188C120.741 18.4441 121.057 17.8055 121.497 17.3903L129.736 26.115ZM132.74 19.1946V11.8036H120.74V19.1946H132.74ZM132.74 11.7969C132.737 9.13397 131.613 6.65544 129.736 4.88327L121.497 13.608C121.057 13.1928 120.741 12.5542 120.74 11.8103L132.74 11.7969ZM129.736 4.88327C127.871 3.12204 125.412 2.18698 122.914 2.1845L122.902 14.1845C122.436 14.184 121.925 14.0122 121.497 13.608L129.736 4.88327ZM122.908 2.18449H115.08V14.1845H122.908V2.18449Z" fill="#EF345F" mask="url(#path-10-inside-2_487_3)"/>
<path d="M123.999 10.9995C124.551 10.9995 124.999 10.5518 124.999 9.99951C124.999 9.44723 124.551 8.99951 123.999 8.99951C123.447 8.99951 122.999 9.44723 122.999 9.99951C122.999 10.5518 123.447 10.9995 123.999 10.9995Z" fill="#EF345F"/>
</svg>
